<svg width="104" height="32" viewBox="0 0 104 32" fill="none" xmlns="http://www.w3.org/2000/svg">
<path d="M52.584 24.056C52.856 24.456 53.152 24.776 53.472 25.016C53.808 25.24 54.216 25.408 54.696 25.52V26C53.928 25.952 52.968 25.928 51.816 25.928C50.952 25.928 50.128 25.952 49.344 26V25.52C49.728 25.504 50.008 25.456 50.184 25.376C50.36 25.296 50.448 25.176 50.448 25.016C50.448 24.856 50.368 24.664 50.208 24.44L46.704 19.16C46.24 18.456 45.848 18 45.528 17.792C45.208 17.568 44.76 17.44 44.184 17.408V23.456C44.184 24.064 44.232 24.504 44.328 24.776C44.424 25.048 44.6 25.232 44.856 25.328C45.128 25.424 45.552 25.488 46.128 25.52V26C45.392 25.952 44.376 25.928 43.08 25.928C41.704 25.928 40.68 25.952 40.008 26V25.52C40.584 25.488 41 25.424 41.256 25.328C41.528 25.232 41.712 25.048 41.808 24.776C41.904 24.504 41.952 24.064 41.952 23.456V11.552C41.952 10.944 41.904 10.504 41.808 10.232C41.712 9.96 41.528 9.776 41.256 9.68C41 9.584 40.584 9.52 40.008 9.488V9.008C40.68 9.056 41.704 9.08 43.08 9.08C44.36 9.08 45.376 9.056 46.128 9.008V9.488C45.552 9.52 45.128 9.584 44.856 9.68C44.6 9.776 44.424 9.96 44.328 10.232C44.232 10.504 44.184 10.944 44.184 11.552V16.928C45.352 16.88 46.264 16.432 46.92 15.584L49.224 12.656C50.04 11.648 50.448 10.88 50.448 10.352C50.448 9.792 49.952 9.504 48.96 9.488V9.008C49.872 9.056 50.792 9.08 51.72 9.08C52.6 9.08 53.28 9.056 53.76 9.008V9.488C53.232 9.568 52.736 9.744 52.272 10.016C51.808 10.272 51.36 10.68 50.928 11.24L47.016 16.256L52.584 24.056ZM62.8866 13.304C63.5266 13.304 64.0466 13.488 64.4466 13.856C64.8626 14.224 65.0706 14.672 65.0706 15.2C65.0706 15.616 64.9426 15.976 64.6866 16.28C64.4466 16.568 64.1186 16.712 63.7026 16.712C63.3506 16.712 63.0466 16.6 62.7906 16.376C62.5506 16.152 62.4306 15.848 62.4306 15.464C62.4306 14.936 62.7026 14.504 63.2466 14.168C63.1346 14.008 62.9666 13.928 62.7426 13.928C62.1186 13.928 61.5506 14.176 61.0386 14.672C60.5266 15.152 60.1266 15.744 59.8386 16.448C59.5506 17.152 59.4066 17.816 59.4066 18.44V23.528C59.4066 24.264 59.6146 24.776 60.0306 25.064C60.4626 25.352 61.1026 25.496 61.9506 25.496V26L61.3746 25.976C59.7426 25.928 58.7026 25.904 58.2546 25.904C57.8386 25.904 56.8946 25.936 55.4226 26V25.496C56.0946 25.496 56.5666 25.376 56.8386 25.136C57.1106 24.88 57.2466 24.424 57.2466 23.768V16.256C57.2466 15.52 57.1106 14.984 56.8386 14.648C56.5666 14.312 56.0946 14.144 55.4226 14.144V13.64C55.9346 13.688 56.4306 13.712 56.9106 13.712C57.9186 13.712 58.7506 13.6 59.4066 13.376V16.376C59.6946 15.576 60.1506 14.864 60.7746 14.24C61.4146 13.616 62.1186 13.304 62.8866 13.304ZM76.0573 23.12C75.7693 24 75.2253 24.76 74.4253 25.4C73.6413 26.024 72.6893 26.336 71.5693 26.336C70.4333 26.336 69.4493 26.08 68.6173 25.568C67.7853 25.04 67.1453 24.312 66.6973 23.384C66.2653 22.44 66.0493 21.352 66.0493 20.12C66.0493 18.728 66.2733 17.52 66.7213 16.496C67.1693 15.472 67.8013 14.688 68.6173 14.144C69.4333 13.584 70.3853 13.304 71.4733 13.304C72.9133 13.304 74.0173 13.744 74.7853 14.624C75.5693 15.488 75.9613 16.808 75.9613 18.584H68.4493C68.4013 19.032 68.3773 19.544 68.3773 20.12C68.3773 21.176 68.5453 22.096 68.8813 22.88C69.2333 23.664 69.6893 24.272 70.2493 24.704C70.8253 25.12 71.4253 25.328 72.0493 25.328C72.8173 25.328 73.4973 25.144 74.0893 24.776C74.6813 24.408 75.1773 23.792 75.5773 22.928L76.0573 23.12ZM71.3773 13.76C70.6253 13.76 69.9773 14.128 69.4333 14.864C68.8893 15.6 68.5533 16.688 68.4253 18.128H73.6573C73.6893 16.88 73.5053 15.84 73.1053 15.008C72.7213 14.176 72.1453 13.76 71.3773 13.76ZM88.1979 23.12C87.9099 24 87.3659 24.76 86.5659 25.4C85.7819 26.024 84.8299 26.336 83.7099 26.336C82.5739 26.336 81.5899 26.08 80.7579 25.568C79.9259 25.04 79.2859 24.312 78.8379 23.384C78.4059 22.44 78.1899 21.352 78.1899 20.12C78.1899 18.728 78.4139 17.52 78.8619 16.496C79.3099 15.472 79.9419 14.688 80.7579 14.144C81.5739 13.584 82.5259 13.304 83.6139 13.304C85.0539 13.304 86.1579 13.744 86.9259 14.624C87.7099 15.488 88.1019 16.808 88.1019 18.584H80.5899C80.5419 19.032 80.5179 19.544 80.5179 20.12C80.5179 21.176 80.6859 22.096 81.0219 22.88C81.3739 23.664 81.8299 24.272 82.3899 24.704C82.9659 25.12 83.5659 25.328 84.1899 25.328C84.9579 25.328 85.6379 25.144 86.2299 24.776C86.8219 24.408 87.3179 23.792 87.7179 22.928L88.1979 23.12ZM83.5179 13.76C82.7659 13.76 82.1179 14.128 81.5739 14.864C81.0299 15.6 80.6939 16.688 80.5659 18.128H85.7979C85.8299 16.88 85.6459 15.84 85.2459 15.008C84.8619 14.176 84.2859 13.76 83.5179 13.76ZM100.843 23.384C100.843 24.12 100.979 24.656 101.251 24.992C101.523 25.328 101.995 25.496 102.667 25.496V26C102.171 25.952 101.675 25.928 101.179 25.928C100.171 25.928 99.3386 26.04 98.6826 26.264V24.128C98.3946 24.848 97.9626 25.4 97.3866 25.784C96.8106 26.152 96.1066 26.336 95.2746 26.336C93.7386 26.336 92.5306 25.784 91.6506 24.68C90.7866 23.576 90.3626 21.96 90.3786 19.832C90.3786 18.44 90.6186 17.256 91.0986 16.28C91.5946 15.288 92.2506 14.544 93.0666 14.048C93.8986 13.552 94.8106 13.304 95.8026 13.304C96.4106 13.304 96.9626 13.424 97.4586 13.664C97.9706 13.888 98.3786 14.24 98.6826 14.72V10.064C98.6826 9.328 98.5466 8.792 98.2746 8.456C98.0026 8.12 97.5306 7.952 96.8586 7.952V7.448C97.3706 7.496 97.8666 7.52 98.3466 7.52C99.3546 7.52 100.187 7.408 100.843 7.184V23.384ZM95.9706 25.616C96.5946 25.616 97.1546 25.376 97.6506 24.896C98.1466 24.416 98.4906 23.736 98.6826 22.856V15.704C98.2506 14.472 97.3546 13.856 95.9946 13.856C95.0026 13.856 94.2026 14.368 93.5946 15.392C92.9866 16.4 92.6906 17.88 92.7066 19.832C92.6906 21.752 92.9626 23.2 93.5226 24.176C94.0826 25.136 94.8986 25.616 95.9706 25.616Z" fill="#660E10"/>
<rect y="1" width="30" height="30" rx="6" fill="#E14649"/>
<path d="M9.70947 22.6781C9.15719 22.6781 8.70947 22.2304 8.70947 21.6781V10.2258C8.70947 9.67355 9.15719 9.22583 9.70947 9.22583H10.7611C11.3134 9.22583 11.7611 9.67355 11.7611 10.2258V21.6781C11.7611 22.2304 11.3134 22.6781 10.7611 22.6781H9.70947ZM12.7492 16.4557C12.67 16.2417 12.6664 16.007 12.739 15.7906L14.7137 9.90761C14.8505 9.50029 15.2321 9.22583 15.6618 9.22583H16.5646C17.2468 9.22583 17.7288 9.89397 17.5135 10.5414L15.7666 15.7949C15.6955 16.0086 15.6987 16.2401 15.7756 16.4519L17.5502 21.3367C17.7871 21.9888 17.3041 22.6781 16.6103 22.6781H15.7471C15.3286 22.6781 14.9544 22.4175 14.8092 22.0251L12.7492 16.4557Z" fill="white"/>
<path d="M19.0114 21.3329C19.0114 20.7564 19.2928 20.3272 19.8555 20.0453C20.1008 19.93 20.3605 19.8724 20.6347 19.8724C21.2839 19.8724 21.7601 20.1222 22.0631 20.6219C22.1929 20.8396 22.2579 21.0767 22.2579 21.3329C22.2579 21.9222 21.9693 22.345 21.3921 22.6013C21.1469 22.7166 20.8944 22.7742 20.6347 22.7742C19.9709 22.7742 19.4948 22.518 19.2062 22.0055C19.0764 21.7877 19.0114 21.5635 19.0114 21.3329Z" fill="white"/>
</svg>
